<svg width="606" height="547" viewBox="0 0 606 547" fill="none" xmlns="http://www.w3.org/2000/svg">
<g filter="url(#filter0_d_16_805)">
<rect x="18" y="14" width="570" height="511" rx="20" fill="white"/>
</g>
<path d="M500 152C524.301 152 544 132.301 544 108C544 83.6995 524.301 64 500 64C475.699 64 456 83.6995 456 108C456 132.301 475.699 152 500 152Z" fill="#F0F0F0"/>
<g clip-path="url(#clip0_16_805)">
<path d="M527 207.095H524.71V144.328C524.71 134.693 520.879 125.453 514.061 118.64C507.242 111.827 497.994 108 488.351 108H355.253C350.478 108 345.75 108.939 341.339 110.765C336.928 112.591 332.92 115.266 329.543 118.64C326.167 122.013 323.489 126.018 321.661 130.425C319.834 134.833 318.894 139.556 318.894 144.327V488.672C318.894 498.307 322.724 507.547 329.543 514.36C336.361 521.173 345.609 525 355.252 525H488.349C497.992 525 507.24 521.173 514.059 514.36C520.877 507.547 524.708 498.307 524.708 488.672V251.773H526.998L527 207.095Z" fill="#3F3D56"/>
<path d="M517.295 141.894V491.104C517.293 498.409 514.389 505.415 509.22 510.581C504.05 515.747 497.04 518.65 489.728 518.653H353.9C346.586 518.654 339.571 515.752 334.398 510.586C329.225 505.42 326.318 498.412 326.315 491.104V141.894C326.318 134.587 329.225 127.58 334.398 122.413C339.57 117.247 346.585 114.346 353.899 114.347H370.375C369.566 116.335 369.258 118.491 369.479 120.625C369.699 122.76 370.441 124.808 371.638 126.589C372.836 128.37 374.454 129.83 376.349 130.84C378.243 131.85 380.358 132.38 382.505 132.383H459.944C462.091 132.38 464.206 131.85 466.1 130.84C467.995 129.83 469.613 128.37 470.811 126.589C472.008 124.808 472.75 122.76 472.97 120.625C473.191 118.491 472.883 116.335 472.074 114.347H489.723C497.034 114.348 504.046 117.25 509.216 122.415C514.386 127.58 517.292 134.584 517.295 141.889V141.894Z" fill="white"/>
<path d="M423.262 281.6C407.797 281.606 392.964 275.474 382.024 264.553C371.084 253.631 364.934 238.816 364.927 223.364V223.313C364.927 223.191 364.927 223.062 364.934 222.94C365.11 191.022 391.28 165.029 423.262 165.029C438.733 165.029 453.571 171.168 464.512 182.098C475.452 193.028 481.599 207.853 481.6 223.311C481.601 238.769 475.455 253.594 464.516 264.525C453.577 275.456 438.74 281.597 423.268 281.598H423.262V281.6ZM423.262 166.256C408.185 166.289 393.731 172.266 383.039 182.887C372.348 193.509 366.283 207.916 366.163 222.979C366.156 223.11 366.156 223.214 366.156 223.313C366.155 234.6 369.503 245.633 375.778 255.018C382.052 264.403 390.971 271.718 401.407 276.038C411.843 280.359 423.326 281.49 434.406 279.29C445.485 277.089 455.662 271.656 463.651 263.676C471.639 255.696 477.08 245.529 479.285 234.46C481.49 223.391 480.361 211.917 476.039 201.489C471.718 191.061 464.398 182.148 455.007 175.877C445.615 169.605 434.573 166.257 423.277 166.256H423.262Z" fill="#E6E6E6"/>
<path d="M483.584 342.879H362.884C362.292 342.879 361.723 342.643 361.304 342.225C360.885 341.806 360.65 341.238 360.649 340.646V310.732C360.65 310.14 360.886 309.573 361.305 309.154C361.724 308.735 362.292 308.5 362.884 308.499H483.584C484.176 308.5 484.744 308.735 485.163 309.154C485.582 309.573 485.818 310.14 485.819 310.732V340.647C485.818 341.239 485.582 341.806 485.163 342.225C484.744 342.644 484.176 342.879 483.584 342.88V342.879ZM362.884 309.392C362.529 309.392 362.188 309.534 361.936 309.785C361.685 310.036 361.543 310.377 361.543 310.732V340.647C361.543 341.002 361.685 341.343 361.936 341.594C362.188 341.845 362.529 341.987 362.884 341.987H483.584C483.939 341.987 484.28 341.845 484.532 341.594C484.783 341.343 484.925 341.002 484.925 340.647V310.732C484.925 310.377 484.783 310.036 484.532 309.785C484.28 309.534 483.939 309.392 483.584 309.392H362.884Z" fill="#E6E6E6"/>
<path d="M400.211 319.436C399.796 319.436 399.398 319.601 399.105 319.894C398.812 320.187 398.647 320.585 398.647 321C398.647 321.414 398.812 321.812 399.105 322.105C399.398 322.398 399.796 322.563 400.211 322.563H473.972C474.177 322.571 474.382 322.538 474.575 322.467C474.767 322.396 474.944 322.287 475.095 322.148C475.246 322.008 475.368 321.84 475.453 321.654C475.539 321.467 475.588 321.266 475.595 321.06C475.603 320.855 475.571 320.65 475.499 320.458C475.428 320.265 475.319 320.089 475.18 319.938C475.04 319.787 474.872 319.666 474.685 319.58C474.499 319.494 474.297 319.446 474.091 319.438C474.069 319.437 474.046 319.437 474.023 319.437H400.211V319.436Z" fill="#E6E6E6"/>
<path d="M400.211 328.816C399.796 328.816 399.398 328.98 399.105 329.274C398.812 329.567 398.647 329.965 398.647 330.379C398.647 330.794 398.812 331.191 399.105 331.485C399.398 331.778 399.796 331.943 400.211 331.943H473.972C474.177 331.95 474.382 331.918 474.575 331.846C474.767 331.775 474.944 331.667 475.095 331.527C475.246 331.388 475.368 331.22 475.453 331.033C475.539 330.847 475.588 330.645 475.595 330.44C475.603 330.235 475.571 330.03 475.499 329.837C475.428 329.645 475.319 329.468 475.18 329.317C475.04 329.167 474.872 329.045 474.685 328.959C474.499 328.874 474.297 328.825 474.091 328.817C474.069 328.817 474.046 328.816 474.023 328.816H400.211V328.816Z" fill="#E6E6E6"/>
<path d="M483.584 392.904H362.884C362.292 392.904 361.723 392.668 361.304 392.25C360.885 391.831 360.65 391.263 360.649 390.671V360.757C360.65 360.165 360.886 359.597 361.305 359.179C361.724 358.76 362.292 358.525 362.884 358.524H483.584C484.176 358.525 484.744 358.76 485.163 359.179C485.582 359.597 485.818 360.165 485.819 360.757V390.672C485.818 391.264 485.582 391.831 485.163 392.25C484.744 392.668 484.176 392.903 483.584 392.904ZM362.884 359.417C362.529 359.417 362.188 359.559 361.936 359.81C361.685 360.061 361.543 360.402 361.543 360.757V390.672C361.543 391.027 361.685 391.368 361.936 391.619C362.188 391.87 362.529 392.012 362.884 392.012H483.584C483.939 392.012 484.28 391.87 484.532 391.619C484.783 391.368 484.925 391.027 484.925 390.672V360.757C484.925 360.402 484.783 360.061 484.532 359.81C484.28 359.559 483.939 359.417 483.584 359.417H362.884Z" fill="#E6E6E6"/>
<path d="M400.211 369.459C399.796 369.459 399.398 369.624 399.105 369.917C398.812 370.21 398.647 370.608 398.647 371.022C398.647 371.437 398.812 371.835 399.105 372.128C399.398 372.421 399.796 372.586 400.211 372.586H473.972C474.381 372.583 474.773 372.421 475.063 372.134C475.354 371.846 475.521 371.456 475.528 371.048C475.534 370.639 475.38 370.244 475.099 369.947C474.818 369.65 474.432 369.475 474.023 369.46H400.211V369.459Z" fill="#E6E6E6"/>
<path d="M400.211 378.841C399.796 378.841 399.398 379.006 399.105 379.299C398.812 379.592 398.647 379.99 398.647 380.404C398.647 380.819 398.812 381.217 399.105 381.51C399.398 381.803 399.796 381.968 400.211 381.968H473.972C474.381 381.965 474.773 381.803 475.063 381.516C475.354 381.228 475.521 380.838 475.528 380.43C475.534 380.021 475.38 379.626 475.099 379.329C474.818 379.032 474.432 378.857 474.023 378.842H400.211V378.841Z" fill="#E6E6E6"/>
<path d="M483.584 442.928H362.884C362.292 442.928 361.723 442.692 361.304 442.273C360.885 441.855 360.65 441.287 360.649 440.695V410.781C360.65 410.189 360.886 409.621 361.305 409.203C361.724 408.784 362.292 408.549 362.884 408.548H483.584C484.176 408.549 484.744 408.784 485.163 409.203C485.582 409.621 485.818 410.189 485.819 410.781V440.696C485.818 441.288 485.582 441.855 485.163 442.274C484.744 442.693 484.176 442.928 483.584 442.929V442.928ZM362.884 409.441C362.529 409.441 362.188 409.582 361.936 409.834C361.685 410.085 361.543 410.426 361.543 410.781V440.696C361.543 441.051 361.685 441.392 361.936 441.643C362.188 441.894 362.529 442.035 362.884 442.036H483.584C483.939 442.035 484.28 441.894 484.532 441.643C484.783 441.392 484.925 441.051 484.925 440.696V410.781C484.925 410.426 484.783 410.085 484.532 409.834C484.28 409.582 483.939 409.441 483.584 409.441H362.884Z" fill="#E6E6E6"/>
<path d="M400.211 419.485C399.796 419.485 399.398 419.649 399.105 419.943C398.812 420.236 398.647 420.633 398.647 421.048C398.647 421.463 398.812 421.86 399.105 422.153C399.398 422.447 399.796 422.611 400.211 422.611H473.972C474.177 422.619 474.382 422.587 474.575 422.515C474.767 422.444 474.944 422.336 475.095 422.196C475.246 422.056 475.368 421.889 475.453 421.702C475.539 421.516 475.588 421.314 475.595 421.109C475.603 420.904 475.571 420.699 475.499 420.506C475.428 420.314 475.319 420.137 475.18 419.986C475.04 419.836 474.872 419.714 474.685 419.628C474.499 419.542 474.297 419.494 474.091 419.486C474.069 419.485 474.046 419.485 474.023 419.485H400.211V419.485Z" fill="#E6E6E6"/>
<path d="M400.211 428.865C399.796 428.865 399.398 429.029 399.105 429.323C398.812 429.616 398.647 430.013 398.647 430.428C398.647 430.843 398.812 431.24 399.105 431.534C399.398 431.827 399.796 431.991 400.211 431.991H473.972C474.177 431.999 474.382 431.967 474.575 431.895C474.767 431.824 474.944 431.716 475.095 431.576C475.246 431.437 475.368 431.269 475.453 431.082C475.539 430.896 475.588 430.694 475.595 430.489C475.603 430.284 475.571 430.079 475.499 429.886C475.428 429.694 475.319 429.517 475.18 429.366C475.04 429.216 474.872 429.094 474.685 429.008C474.499 428.922 474.297 428.874 474.091 428.866C474.069 428.866 474.046 428.865 474.023 428.865H400.211V428.865Z" fill="#E6E6E6"/>
<path d="M441.695 221.899H424.682V204.9H421.847V221.899H404.834V224.731H421.847V241.73H424.682V224.731H441.695V221.899Z" fill="#77B2D3"/>
<path d="M180.442 435.653C180.442 435.653 166.531 450.875 164.544 485.952C162.557 521.029 161.894 525 161.894 525H211.575L220.844 501.177L231.445 524.998H278.475C278.475 524.998 283.774 452.197 278.475 450.211C273.176 448.226 180.442 435.653 180.442 435.653Z" fill="#2F2E41"/>
<path d="M247.011 256.628C260.181 256.628 270.857 245.961 270.857 232.802C270.857 219.644 260.181 208.977 247.011 208.977C233.841 208.977 223.165 219.644 223.165 232.802C223.165 245.961 233.841 256.628 247.011 256.628Z" fill="#FFB8B8"/>
<path d="M350.015 436.318L313.583 370.134L292.384 335.719L317.557 324.467L331.467 351.602C331.467 351.602 350.015 378.737 354.651 401.24C359.287 423.743 363.925 434.332 363.925 434.332L350.015 436.318Z" fill="#FFB8B8"/>
<path d="M149.304 417.122L203.621 369.47L200.974 331.084H185.739L181.1 350.939L137.382 408.518L149.304 417.122Z" fill="#FFB8B8"/>
<path d="M219.521 268.211C219.521 268.211 239.194 276.452 253.865 266.375C253.865 266.375 289.735 272.184 291.722 274.168C293.71 276.152 289.735 335.716 289.735 335.716L281.787 369.471C281.787 369.471 293.048 421.094 276.488 434.331L279.8 452.2C279.8 452.2 206.274 457.495 177.128 439.625L182.426 421.755L196.337 365.499L187.726 287.405C187.726 287.405 194.347 269.535 219.521 268.211Z" fill="#E4E4E4"/>
<path d="M274.832 277.145L292.054 274.5C292.054 274.5 300.666 275.824 308.614 292.37C316.563 308.916 325.175 330.756 325.175 330.756L295.367 343.992L270.858 305.606L274.832 277.145Z" fill="#E4E4E4"/>
<path d="M191.701 284.095L187.727 287.404C187.727 287.404 182.428 306.597 182.428 319.834V337.703L206.274 340.35L191.701 284.095Z" fill="#E4E4E4"/>
<path d="M223.171 239.268C223.171 239.268 219.93 235.771 220.258 231.393C220.474 228.902 220.315 226.393 219.785 223.95C219.785 223.95 220.8 216.784 222.298 212.63C223.796 208.476 222.533 207.031 228.973 204.763C235.412 202.495 231.313 194.295 250.298 200.832C251.02 201.561 251.942 202.059 252.947 202.265C253.952 202.47 254.996 202.373 255.946 201.987C259.452 200.704 261.564 205.515 261.564 205.515C261.564 205.515 263.75 203.723 264.977 205.586C266.204 207.45 272.137 203.203 274.314 216.758C276.491 230.314 269.021 242.402 269.021 242.402C269.021 242.402 267.973 220.711 255.643 220.317C243.313 219.923 229.37 215.258 227.64 224.392C225.911 233.526 223.171 239.268 223.171 239.268Z" fill="#2F2E41"/>
<path d="M140.616 427.259C146.291 427.259 150.892 422.662 150.892 416.991C150.892 411.32 146.291 406.723 140.616 406.723C134.94 406.723 130.339 411.32 130.339 416.991C130.339 422.662 134.94 427.259 140.616 427.259Z" fill="#FFB8B8"/>
<path d="M66.5295 486.341L235.781 452.585L221.637 381.789L52.3853 415.543L66.5295 486.341Z" fill="white"/>
<path d="M237.167 453.509L65.6058 487.728L51 414.621L222.561 380.404L237.167 453.509ZM67.4544 484.958L234.397 451.663L220.713 383.172L53.7706 416.468L67.4544 484.958Z" fill="#E4E4E4"/>
<path d="M121.715 463.838L121.645 463.867C121.093 464.094 120.534 464.309 119.959 464.497C119.766 464.563 119.566 464.624 119.372 464.682C119.178 464.741 118.977 464.803 118.776 464.857C118.449 464.951 118.115 465.034 117.778 465.112C117.634 465.149 117.482 465.181 117.337 465.212L117.25 465.23C117.069 465.269 116.889 465.307 116.708 465.339L116.238 465.421C116.151 465.44 116.065 465.452 115.98 465.464C112.247 466.049 108.43 465.781 104.817 464.68C101.203 463.579 97.8856 461.674 95.115 459.108C92.3443 456.541 90.192 453.381 88.82 449.863C87.4481 446.346 86.8921 442.564 87.1939 438.801C87.4957 435.038 88.6475 431.393 90.5626 428.139C92.4777 424.885 95.1063 422.107 98.2507 420.014C101.395 417.922 104.973 416.568 108.717 416.056C112.46 415.545 116.271 415.887 119.862 417.059C116.612 419.993 114.19 423.729 112.84 427.892C111.49 432.056 111.259 436.501 112.17 440.782C113.082 445.062 115.103 449.029 118.032 452.283C120.961 455.537 124.695 457.965 128.859 459.324C126.753 461.225 124.337 462.753 121.716 463.84L121.715 463.838Z" fill="#77B2D3"/>
<path d="M157.444 451.139C158.536 451.686 159.668 452.15 160.83 452.528C157.577 455.473 153.602 457.505 149.308 458.417L148.994 458.484C145.246 459.235 141.375 459.118 137.679 458.14C133.983 457.163 130.561 455.351 127.676 452.844C124.791 450.338 122.52 447.204 121.038 443.683C119.556 440.162 118.902 436.348 119.126 432.535C119.351 428.722 120.448 425.011 122.333 421.688C124.219 418.365 126.842 415.518 130.001 413.367C133.16 411.216 136.771 409.817 140.556 409.279C144.341 408.742 148.199 409.078 151.833 410.264C148.803 412.985 146.486 416.405 145.085 420.227C143.683 424.049 143.24 428.155 143.793 432.188C144.347 436.22 145.88 440.056 148.26 443.359C150.639 446.663 153.792 449.334 157.444 451.139L157.444 451.139Z" fill="#77B2D3"/>
<path d="M200.518 422.009C201.547 426.839 201.118 431.866 199.287 436.453C197.456 441.04 194.305 444.982 190.231 447.78C186.158 450.578 181.346 452.106 176.404 452.171C171.461 452.236 166.61 450.836 162.465 448.146C158.319 445.457 155.064 441.6 153.113 437.063C151.161 432.525 150.6 427.512 151.5 422.656C152.4 417.8 154.721 413.319 158.17 409.781C161.619 406.243 166.04 403.807 170.875 402.779C174.085 402.097 177.398 402.053 180.625 402.651C183.852 403.248 186.93 404.474 189.683 406.26C192.435 408.045 194.809 410.355 196.668 413.057C198.527 415.76 199.836 418.801 200.518 422.009Z" fill="#77B2D3"/>
<path d="M190.053 444.291C190.289 445.396 190.413 446.522 190.422 447.653C187.67 449.577 184.558 450.929 181.273 451.627C177.987 452.325 174.594 452.355 171.297 451.717C170.844 450.68 170.499 449.601 170.264 448.496C169.041 442.75 170.937 437.272 174.623 434.794C172.869 434.459 171.284 433.529 170.139 432.16C168.993 430.791 168.357 429.068 168.338 427.283C168.32 425.499 168.919 423.763 170.036 422.37C171.153 420.978 172.717 420.014 174.464 419.643C176.211 419.271 178.033 419.516 179.62 420.334C181.207 421.152 182.462 422.494 183.172 424.131C183.881 425.769 184.002 427.601 183.513 429.318C183.024 431.034 181.956 432.528 180.49 433.547C184.868 434.312 188.83 438.545 190.053 444.291Z" fill="white"/>
<path d="M157.444 451.141L157.46 451.216C157.67 452.604 157.765 454.007 157.745 455.411C155.156 457.225 152.262 457.749 148.995 458.486L148.68 458.553C145.395 459.255 142.002 459.285 138.704 458.642C138.66 458.547 138.621 458.45 138.588 458.351C138.189 457.406 137.883 456.425 137.672 455.421C136.449 449.676 138.345 444.198 142.031 441.719C140.277 441.385 138.692 440.455 137.547 439.086C136.401 437.717 135.765 435.994 135.746 434.21C135.727 432.425 136.327 430.689 137.444 429.297C138.561 427.904 140.125 426.941 141.872 426.57C142.464 426.442 143.07 426.387 143.675 426.406C143.191 431.437 144.249 436.497 146.708 440.914C149.167 445.332 152.911 448.898 157.445 451.142L157.444 451.141Z" fill="white"/>
<path d="M126.091 458.234C126.29 459.229 126.393 460.241 126.4 461.256C124.422 462.643 122.253 463.734 119.96 464.497C119.767 464.562 119.567 464.623 119.373 464.681C119.179 464.74 118.978 464.802 118.777 464.856C118.45 464.951 118.116 465.034 117.779 465.111C117.71 465.132 117.635 465.148 117.565 465.163L117.251 465.229C117.07 465.268 116.89 465.306 116.709 465.339L116.239 465.42C116.152 465.439 116.066 465.451 115.98 465.463C113.093 465.929 110.146 465.881 107.275 465.32C107.267 465.308 107.263 465.294 107.261 465.28C107.221 465.199 107.186 465.114 107.158 465.028C106.76 464.083 106.453 463.102 106.243 462.098C105.02 456.353 106.915 450.875 110.602 448.397C108.848 448.063 107.263 447.132 106.117 445.763C104.971 444.394 104.335 442.671 104.316 440.887C104.298 439.103 104.898 437.367 106.014 435.974C107.131 434.582 108.696 433.618 110.443 433.247C110.862 433.157 111.288 433.103 111.717 433.086C111.196 438.251 112.301 443.45 114.877 447.957C117.454 452.465 121.374 456.057 126.092 458.233L126.091 458.234Z" fill="white"/>
<path d="M383.588 330.176C383.589 330.742 383.532 331.305 383.419 331.859C381.872 332.515 380.21 332.852 378.53 332.852C376.85 332.852 375.188 332.515 373.641 331.859C373.528 331.305 373.471 330.742 373.471 330.176C373.471 327.239 374.968 324.757 377.03 323.927C376.207 323.581 375.529 322.961 375.111 322.173C374.693 321.384 374.561 320.475 374.738 319.6C374.914 318.726 375.389 317.939 376.08 317.374C376.771 316.809 377.636 316.5 378.53 316.5C379.423 316.5 380.288 316.809 380.98 317.374C381.671 317.939 382.145 318.726 382.321 319.6C382.498 320.475 382.366 321.384 381.948 322.173C381.531 322.961 380.852 323.581 380.029 323.927C382.092 324.757 383.588 327.239 383.588 330.176Z" fill="#77B2D3"/>
<path d="M383.588 381.215C383.589 381.78 383.532 382.344 383.419 382.898C381.872 383.553 380.21 383.891 378.53 383.891C376.85 383.891 375.188 383.553 373.641 382.898C373.528 382.344 373.471 381.78 373.471 381.215C373.471 378.278 374.968 375.795 377.03 374.966C376.207 374.62 375.529 374 375.111 373.211C374.693 372.422 374.561 371.513 374.738 370.639C374.914 369.764 375.389 368.977 376.08 368.412C376.771 367.847 377.636 367.538 378.53 367.538C379.423 367.538 380.288 367.847 380.98 368.412C381.671 368.977 382.145 369.764 382.321 370.639C382.498 371.513 382.366 372.422 381.948 373.211C381.531 374 380.852 374.62 380.029 374.966C382.092 375.795 383.588 378.278 383.588 381.215Z" fill="#77B2D3"/>
<path d="M383.588 431.238C383.589 431.803 383.532 432.367 383.419 432.921C381.872 433.576 380.21 433.914 378.53 433.914C376.85 433.914 375.188 433.576 373.641 432.921C373.528 432.367 373.471 431.803 373.471 431.238C373.471 428.301 374.968 425.818 377.03 424.989C376.207 424.643 375.529 424.023 375.111 423.234C374.693 422.446 374.561 421.537 374.738 420.662C374.914 419.787 375.389 419 376.08 418.435C376.771 417.87 377.636 417.561 378.53 417.561C379.423 417.561 380.288 417.87 380.98 418.435C381.671 419 382.145 419.787 382.321 420.662C382.498 421.537 382.366 422.446 381.948 423.234C381.531 424.023 380.852 424.643 380.029 424.989C382.092 425.818 383.588 428.301 383.588 431.238Z" fill="#77B2D3"/>
<path d="M357.601 448.381C362.79 448.381 366.997 444.178 366.997 438.993C366.997 433.809 362.79 429.606 357.601 429.606C352.412 429.606 348.205 433.809 348.205 438.993C348.205 444.178 352.412 448.381 357.601 448.381Z" fill="#FFB8B8"/>
</g>
<path d="M156.182 154.65C174.359 154.65 189.095 139.914 189.095 121.737C189.095 103.56 174.359 88.824 156.182 88.824C138.005 88.824 123.269 103.56 123.269 121.737C123.269 139.914 138.005 154.65 156.182 154.65Z" fill="#F0F0F0"/>
<path d="M64.5 198C73.6127 198 81 190.613 81 181.5C81 172.387 73.6127 165 64.5 165C55.3873 165 48 172.387 48 181.5C48 190.613 55.3873 198 64.5 198Z" fill="#F0F0F0"/>
<path d="M142.068 115.361L127.374 100.853C126.658 100.142 125.81 99.5779 124.876 99.1947C123.942 98.8115 122.943 98.6164 121.933 98.6204H121.882C120.865 98.6234 119.859 98.8279 118.922 99.2223C117.985 99.6166 117.135 100.193 116.422 100.918C113.136 104.243 111.268 108.712 111.209 113.387C111.15 118.061 112.905 122.576 116.106 125.983C116.261 126.151 116.422 126.312 116.583 126.474C117.477 127.362 118.464 128.152 119.526 128.829C122.431 130.706 125.819 131.699 129.277 131.688H129.387C131.761 131.68 134.11 131.201 136.298 130.28C138.485 129.358 140.469 128.012 142.133 126.319C143.575 124.856 144.378 122.881 144.366 120.826C144.354 118.772 143.527 116.807 142.068 115.361ZM141.216 125.409C138.488 128.157 134.896 129.881 131.045 130.29C127.194 130.699 123.32 129.769 120.075 127.655C119.147 127.04 118.28 126.338 117.487 125.557C114.321 122.43 112.526 118.173 112.498 113.723C112.471 109.273 114.212 104.994 117.339 101.828C117.933 101.222 118.642 100.741 119.424 100.412C120.206 100.083 121.046 99.9124 121.895 99.9111H121.933C122.774 99.9082 123.606 100.071 124.383 100.39C125.161 100.709 125.868 101.178 126.464 101.77L141.158 116.284C142.375 117.487 143.064 119.123 143.075 120.834C143.086 122.545 142.417 124.19 141.216 125.409Z" fill="#3F3D56"/>
<path d="M93.8544 67.7468L79.1598 53.2329C77.7134 51.7979 75.757 50.9949 73.7195 51H73.6744C72.6563 51.0041 71.649 51.2098 70.7109 51.6052C69.7727 52.0007 68.9221 52.578 68.2082 53.3039C65.492 56.0625 63.7307 59.6187 63.1826 63.4512C62.6344 67.2836 63.3282 71.1909 65.1622 74.6004L65.1687 74.6068C65.9253 76.0014 66.865 77.2885 67.963 78.4338C68.0856 78.5757 68.2276 78.7177 68.3696 78.8597C71.7441 82.2093 76.3089 84.0844 81.0636 84.0741H81.1798C83.554 84.0642 85.9028 83.584 88.0904 82.6613C90.2781 81.7387 92.2612 80.3918 93.9254 78.6984C94.6399 77.9747 95.2049 77.1173 95.588 76.1752C95.9711 75.2331 96.1649 74.2248 96.1583 73.2079C96.1517 72.1909 95.9448 71.1852 95.5495 70.2482C95.1542 69.3112 94.5782 68.4612 93.8544 67.7468V67.7468ZM93.0026 77.7949C91.4579 79.3663 89.6172 80.6162 87.5869 81.4724C85.5566 82.3286 83.3768 82.7742 81.1733 82.7835H81.0636C77.7545 82.7822 74.5196 81.8025 71.7658 79.9675C69.012 78.1326 66.8623 75.5243 65.5869 72.4708C64.3116 69.4173 63.9676 66.0549 64.5982 62.8064C65.2288 59.5579 66.8059 56.5684 69.1311 54.2139C70.3342 52.9975 71.9708 52.3082 73.6817 52.2973C75.3925 52.2864 77.0378 52.9548 78.2563 54.1558L92.9509 68.6632C94.1666 69.8684 94.8547 71.5066 94.8644 73.2184C94.8741 74.9302 94.2045 76.576 93.0025 77.7949L93.0026 77.7949Z" fill="#3F3D56"/>
<path d="M143.008 119.922L126.807 103.921C125.745 102.874 124.311 102.292 122.819 102.301C121.328 102.31 119.901 102.911 118.852 103.971C117.539 105.297 116.501 106.868 115.796 108.596C115.091 110.323 114.734 112.173 114.745 114.039C114.755 115.905 115.133 117.75 115.858 119.469C116.582 121.189 117.638 122.749 118.965 124.06C120.293 125.371 121.866 126.408 123.594 127.111C125.322 127.813 127.172 128.169 129.038 128.156C130.904 128.143 132.749 127.763 134.467 127.037C136.186 126.311 137.745 125.253 139.055 123.924L143.008 119.922Z" fill="#77B2D3"/>
<path d="M94.7967 72.3053L78.5963 56.3048C77.534 55.2579 76.0998 54.6752 74.6084 54.6844C73.1169 54.6937 71.6901 55.2942 70.6408 56.3542C69.3283 57.6802 68.2899 59.2519 67.5852 60.9795C66.8805 62.7071 66.5231 64.5566 66.5337 66.4224C66.5442 68.2881 66.9224 70.1335 67.6466 71.853C68.3708 73.5725 69.4269 75.1324 70.7544 76.4435C72.0818 77.7546 73.6547 78.7912 75.3831 79.494C77.1114 80.1969 78.9614 80.5521 80.8271 80.5395C82.6929 80.5269 84.5379 80.1467 86.2566 79.4205C87.9753 78.6944 89.534 77.6366 90.8436 76.3077L94.7967 72.3053Z" fill="#77B2D3"/>
<path d="M125.206 129.888L124.818 130.907C122.998 130.217 121.234 129.524 119.526 128.829C89.2725 116.484 74.8296 102.034 65.1688 74.6069L65.1623 74.6005C64.7041 73.3098 64.2588 71.989 63.8264 70.6381L64.8461 70.309C65.187 71.6082 65.6855 72.8608 66.3304 74.0391C66.8596 75.5427 67.4038 77.0077 67.9631 78.4339C77.0432 101.583 90.4342 114.812 116.106 125.983C117.397 126.545 118.72 127.102 120.075 127.655C121.649 128.68 123.383 129.435 125.206 129.888Z" fill="#3F3D56"/>
<path d="M78.8904 82.8994L77.9832 83.818L111.501 116.923L112.409 116.004L78.8904 82.8994Z" fill="#3F3D56"/>
<defs>
<filter id="filter0_d_16_805" x="0" y="0" width="606" height="547" filterUnits="userSpaceOnUse" color-interpolation-filters="sRGB">
<feFlood flood-opacity="0" result="BackgroundImageFix"/>
<feColorMatrix in="SourceAlpha" type="matrix" values="0 0 0 0 0 0 0 0 0 0 0 0 0 0 0 0 0 0 127 0" result="hardAlpha"/>
<feOffset dy="4"/>
<feGaussianBlur stdDeviation="9"/>
<feComposite in2="hardAlpha" operator="out"/>
<feColorMatrix type="matrix" values="0 0 0 0 0 0 0 0 0 0 0 0 0 0 0 0 0 0 0.08 0"/>
<feBlend mode="normal" in2="BackgroundImageFix" result="effect1_dropShadow_16_805"/>
<feBlend mode="normal" in="SourceGraphic" in2="effect1_dropShadow_16_805" result="shape"/>
</filter>
<clipPath id="clip0_16_805">
<rect width="476" height="417" fill="white" transform="translate(51 108)"/>
</clipPath>
</defs>
</svg>
